<mxfile host="app.diagrams.net" modified="2023-10-03T00:38:47.017Z" agent="Mozilla/5.0 (Windows NT 10.0; Win64; x64) AppleWebKit/537.36 (KHTML, like Gecko) Chrome/117.0.0.0 Safari/537.36 Edg/117.0.2045.47" etag="orc9NnFMC2bmd9dhzxAm" version="22.0.1" type="github">
  <diagram name="PÃ¡gina-1" id="z3U-Prj7A4X9mL8xkahB">
    <mxGraphModel dx="872" dy="481" grid="1" gridSize="10" guides="1" tooltips="1" connect="1" arrows="1" fold="1" page="1" pageScale="1" pageWidth="827" pageHeight="1169" math="0" shadow="0">
      <root>
        <mxCell id="0" />
        <mxCell id="1" parent="0" />
        <mxCell id="14QvtGUpP6zNy5mQ4WsW-1" value="Actor" style="shape=umlActor;verticalLabelPosition=bottom;verticalAlign=top;html=1;outlineConnect=0;" vertex="1" parent="1">
          <mxGeometry x="100" y="220" width="40" height="70" as="geometry" />
        </mxCell>
        <mxCell id="14QvtGUpP6zNy5mQ4WsW-2" value="" style="whiteSpace=wrap;html=1;aspect=fixed;" vertex="1" parent="1">
          <mxGeometry x="190" y="50" width="470" height="470" as="geometry" />
        </mxCell>
        <mxCell id="14QvtGUpP6zNy5mQ4WsW-3" value="Visualizar Estoque" style="ellipse;whiteSpace=wrap;html=1;" vertex="1" parent="1">
          <mxGeometry x="365" y="70" width="115" height="70" as="geometry" />
        </mxCell>
        <mxCell id="14QvtGUpP6zNy5mQ4WsW-4" value="" style="endArrow=none;html=1;rounded=0;exitX=0.5;exitY=0.5;exitDx=0;exitDy=0;exitPerimeter=0;entryX=0;entryY=1;entryDx=0;entryDy=0;" edge="1" parent="1" source="14QvtGUpP6zNy5mQ4WsW-1" target="14QvtGUpP6zNy5mQ4WsW-3">
          <mxGeometry width="50" height="50" relative="1" as="geometry">
            <mxPoint x="390" y="280" as="sourcePoint" />
            <mxPoint x="440" y="230" as="targetPoint" />
            <Array as="points" />
          </mxGeometry>
        </mxCell>
        <mxCell id="14QvtGUpP6zNy5mQ4WsW-5" value="Visualizar Vendas" style="ellipse;whiteSpace=wrap;html=1;" vertex="1" parent="1">
          <mxGeometry x="380" y="170" width="90" height="60" as="geometry" />
        </mxCell>
        <mxCell id="14QvtGUpP6zNy5mQ4WsW-6" value="" style="endArrow=none;html=1;rounded=0;exitX=0.5;exitY=0.5;exitDx=0;exitDy=0;exitPerimeter=0;" edge="1" parent="1" source="14QvtGUpP6zNy5mQ4WsW-1" target="14QvtGUpP6zNy5mQ4WsW-5">
          <mxGeometry width="50" height="50" relative="1" as="geometry">
            <mxPoint x="390" y="280" as="sourcePoint" />
            <mxPoint x="440" y="230" as="targetPoint" />
          </mxGeometry>
        </mxCell>
        <mxCell id="14QvtGUpP6zNy5mQ4WsW-7" value="Adicionar produto no Estoque" style="ellipse;whiteSpace=wrap;html=1;" vertex="1" parent="1">
          <mxGeometry x="380" y="260" width="90" height="60" as="geometry" />
        </mxCell>
        <mxCell id="14QvtGUpP6zNy5mQ4WsW-8" value="" style="endArrow=none;html=1;rounded=0;entryX=0.067;entryY=0.283;entryDx=0;entryDy=0;entryPerimeter=0;" edge="1" parent="1" source="14QvtGUpP6zNy5mQ4WsW-1" target="14QvtGUpP6zNy5mQ4WsW-7">
          <mxGeometry width="50" height="50" relative="1" as="geometry">
            <mxPoint x="390" y="280" as="sourcePoint" />
            <mxPoint x="440" y="230" as="targetPoint" />
          </mxGeometry>
        </mxCell>
      </root>
    </mxGraphModel>
  </diagram>
</mxfile>
